@startuml

class Character {
    - character: char
    - characterProperty: CharacterProperties
    + Character(char, CharacterProperties)
    + setCharacter(char): void
    + setCharacterProperty(CharacterProperties): void
    + getCharacter(): char
    + getFont(): String
    + getColor(): String
    + getSize(): int
}

class CharacterProperties {
    - font: String
    - color: String
    - size: int
    + CharacterProperties(String, String, int)
    + getFont(): String
    + getColor(): String
    + getSize(): int
}

class CharacterPropertiesFactory {
    - flyweights: Map<String, CharacterProperties>
    + setAndRetrieveFlyweightCharacterProperties(String, String, int): CharacterProperties
    + sizeOfMap(): int
}

class Document {
    - characters: List<Character>
    - propertiesFactory: CharacterPropertiesFactory
    + addCharacter(char, String, String, int): void
    + editCharacterProperties(int, String, String, int): void
    + saveToFile(String): void
    + loadFromFile(String): void
}

Character "1" *-- "1" CharacterProperties : has
CharacterPropertiesFactory "1" o-- "many" CharacterProperties: manages
Document "1" *-- "many" Character: contains
Document "1" *-- "1" CharacterPropertiesFactory: utilizes

@enduml
